<svg width="845" height="256" viewBox="0 0 845 256" fill="none" xmlns="http://www.w3.org/2000/svg">
<path d="M364.84 174.98C362.507 174.98 360.687 174.327 359.38 173.02C358.167 171.713 357.56 169.893 357.56 167.56V87.48H327.88C325.92 87.48 324.38 86.9667 323.26 85.94C322.14 84.82 321.58 83.28 321.58 81.32C321.58 79.36 322.14 77.8667 323.26 76.84C324.38 75.8133 325.92 75.3 327.88 75.3H401.66C403.713 75.3 405.3 75.8133 406.42 76.84C407.54 77.8667 408.1 79.36 408.1 81.32C408.1 83.28 407.54 84.82 406.42 85.94C405.3 86.9667 403.713 87.48 401.66 87.48H371.98V167.56C371.98 169.893 371.373 171.713 370.16 173.02C369.04 174.327 367.267 174.98 364.84 174.98ZM428.565 175.26C423.805 175.26 419.512 174.327 415.685 172.46C411.952 170.593 409.012 168.073 406.865 164.9C404.718 161.727 403.645 158.133 403.645 154.12C403.645 149.08 404.905 145.113 407.425 142.22C410.038 139.233 414.285 137.133 420.165 135.92C426.138 134.613 434.165 133.96 444.245 133.96H450.825V142.64H444.385C437.665 142.64 432.345 142.967 428.425 143.62C424.505 144.273 421.705 145.393 420.025 146.98C418.438 148.473 417.645 150.573 417.645 153.28C417.645 156.827 418.858 159.72 421.285 161.96C423.712 164.107 427.072 165.18 431.365 165.18C434.818 165.18 437.852 164.387 440.465 162.8C443.078 161.12 445.132 158.88 446.625 156.08C448.212 153.28 449.005 150.06 449.005 146.42V130.32C449.005 125 447.885 121.173 445.645 118.84C443.405 116.507 439.718 115.34 434.585 115.34C431.598 115.34 428.472 115.713 425.205 116.46C422.032 117.207 418.718 118.467 415.265 120.24C413.678 120.987 412.325 121.22 411.205 120.94C410.085 120.66 409.198 120.053 408.545 119.12C407.892 118.093 407.518 117.02 407.425 115.9C407.425 114.687 407.705 113.52 408.265 112.4C408.918 111.28 409.992 110.44 411.485 109.88C415.592 107.92 419.652 106.52 423.665 105.68C427.678 104.84 431.458 104.42 435.005 104.42C441.258 104.42 446.392 105.4 450.405 107.36C454.512 109.32 457.545 112.307 459.505 116.32C461.465 120.333 462.445 125.513 462.445 131.86V167.84C462.445 170.08 461.885 171.853 460.765 173.16C459.645 174.373 458.012 174.98 455.865 174.98C453.812 174.98 452.178 174.373 450.965 173.16C449.752 171.853 449.145 170.08 449.145 167.84V158.74H450.405C449.658 162.193 448.258 165.18 446.205 167.7C444.245 170.127 441.772 171.993 438.785 173.3C435.798 174.607 432.392 175.26 428.565 175.26ZM518.6 175.26C512.627 175.26 507.447 173.767 503.06 170.78C498.674 167.7 495.734 163.64 494.24 158.6L495.78 156.08V167.84C495.78 170.08 495.174 171.853 493.96 173.16C492.747 174.373 491.067 174.98 488.92 174.98C486.68 174.98 484.954 174.373 483.74 173.16C482.527 171.853 481.92 170.08 481.92 167.84V81.46C481.92 79.1267 482.527 77.3533 483.74 76.14C484.954 74.9267 486.68 74.32 488.92 74.32C491.16 74.32 492.887 74.9267 494.1 76.14C495.407 77.3533 496.06 79.1267 496.06 81.46V120.66H494.38C495.874 115.713 498.814 111.793 503.2 108.9C507.587 105.913 512.72 104.42 518.6 104.42C524.76 104.42 530.08 105.867 534.56 108.76C539.04 111.653 542.494 115.713 544.92 120.94C547.44 126.167 548.7 132.467 548.7 139.84C548.7 147.027 547.44 153.327 544.92 158.74C542.494 164.06 538.994 168.167 534.42 171.06C529.94 173.86 524.667 175.26 518.6 175.26ZM515.1 164.34C519.02 164.34 522.427 163.407 525.32 161.54C528.214 159.673 530.454 156.92 532.04 153.28C533.627 149.64 534.42 145.16 534.42 139.84C534.42 131.813 532.647 125.747 529.1 121.64C525.647 117.533 520.98 115.48 515.1 115.48C511.274 115.48 507.867 116.413 504.88 118.28C501.987 120.053 499.747 122.76 498.16 126.4C496.574 130.04 495.78 134.52 495.78 139.84C495.78 147.773 497.554 153.84 501.1 158.04C504.647 162.24 509.314 164.34 515.1 164.34ZM601.315 175.26C595.342 175.26 590.162 173.767 585.775 170.78C581.389 167.7 578.449 163.64 576.955 158.6L578.495 156.08V167.84C578.495 170.08 577.889 171.853 576.675 173.16C575.462 174.373 573.782 174.98 571.635 174.98C569.395 174.98 567.669 174.373 566.455 173.16C565.242 171.853 564.635 170.08 564.635 167.84V81.46C564.635 79.1267 565.242 77.3533 566.455 76.14C567.669 74.9267 569.395 74.32 571.635 74.32C573.875 74.32 575.602 74.9267 576.815 76.14C578.122 77.3533 578.775 79.1267 578.775 81.46V120.66H577.095C578.589 115.713 581.529 111.793 585.915 108.9C590.302 105.913 595.435 104.42 601.315 104.42C607.475 104.42 612.795 105.867 617.275 108.76C621.755 111.653 625.209 115.713 627.635 120.94C630.155 126.167 631.415 132.467 631.415 139.84C631.415 147.027 630.155 153.327 627.635 158.74C625.209 164.06 621.709 168.167 617.135 171.06C612.655 173.86 607.382 175.26 601.315 175.26ZM597.815 164.34C601.735 164.34 605.142 163.407 608.035 161.54C610.929 159.673 613.169 156.92 614.755 153.28C616.342 149.64 617.135 145.16 617.135 139.84C617.135 131.813 615.362 125.747 611.815 121.64C608.362 117.533 603.695 115.48 597.815 115.48C593.989 115.48 590.582 116.413 587.595 118.28C584.702 120.053 582.462 122.76 580.875 126.4C579.289 130.04 578.495 134.52 578.495 139.84C578.495 147.773 580.269 153.84 583.815 158.04C587.362 162.24 592.029 164.34 597.815 164.34ZM669.33 175.26C662.05 175.26 656.543 173.16 652.81 168.96C649.17 164.667 647.35 158.507 647.35 150.48V81.46C647.35 79.1267 647.957 77.3533 649.17 76.14C650.383 74.9267 652.11 74.32 654.35 74.32C656.59 74.32 658.317 74.9267 659.53 76.14C660.837 77.3533 661.49 79.1267 661.49 81.46V149.64C661.49 154.307 662.423 157.807 664.29 160.14C666.25 162.38 669.05 163.5 672.69 163.5C673.53 163.5 674.277 163.5 674.93 163.5C675.583 163.407 676.237 163.313 676.89 163.22C678.01 163.127 678.803 163.453 679.27 164.2C679.737 164.853 679.97 166.253 679.97 168.4C679.97 170.36 679.55 171.9 678.71 173.02C677.87 174.047 676.517 174.7 674.65 174.98C673.81 175.073 672.923 175.12 671.99 175.12C671.057 175.213 670.17 175.26 669.33 175.26ZM721.52 175.26C714.053 175.26 707.613 173.86 702.2 171.06C696.88 168.167 692.726 164.107 689.74 158.88C686.846 153.56 685.4 147.26 685.4 139.98C685.4 132.887 686.846 126.68 689.74 121.36C692.633 116.04 696.6 111.887 701.64 108.9C706.68 105.913 712.42 104.42 718.86 104.42C723.62 104.42 727.866 105.213 731.6 106.8C735.333 108.293 738.506 110.533 741.12 113.52C743.826 116.413 745.833 119.96 747.14 124.16C748.54 128.36 749.24 133.073 749.24 138.3C749.24 139.887 748.773 141.1 747.84 141.94C746.906 142.687 745.506 143.06 743.64 143.06H696.6V134.38H739.72L737.34 136.34C737.34 131.673 736.64 127.707 735.24 124.44C733.933 121.173 731.926 118.7 729.22 117.02C726.606 115.247 723.34 114.36 719.42 114.36C715.033 114.36 711.3 115.387 708.22 117.44C705.233 119.493 702.946 122.34 701.36 125.98C699.773 129.62 698.98 133.867 698.98 138.72V139.56C698.98 147.773 700.893 153.98 704.72 158.18C708.64 162.287 714.286 164.34 721.66 164.34C724.46 164.34 727.4 163.967 730.48 163.22C733.653 162.473 736.64 161.213 739.44 159.44C741.026 158.507 742.426 158.087 743.64 158.18C744.946 158.273 745.973 158.693 746.72 159.44C747.56 160.187 748.073 161.12 748.26 162.24C748.446 163.36 748.26 164.527 747.7 165.74C747.14 166.86 746.16 167.887 744.76 168.82C741.586 170.967 737.9 172.6 733.7 173.72C729.5 174.747 725.44 175.26 721.52 175.26ZM790.695 175.26C784.722 175.26 779.448 173.86 774.875 171.06C770.395 168.167 766.895 164.06 764.375 158.74C761.855 153.327 760.595 147.027 760.595 139.84C760.595 132.467 761.855 126.167 764.375 120.94C766.895 115.713 770.395 111.653 774.875 108.76C779.448 105.867 784.722 104.42 790.695 104.42C796.668 104.42 801.802 105.913 806.095 108.9C810.482 111.793 813.422 115.713 814.915 120.66H813.375V81.46C813.375 79.1267 813.982 77.3533 815.195 76.14C816.408 74.9267 818.135 74.32 820.375 74.32C822.615 74.32 824.342 74.9267 825.555 76.14C826.862 77.3533 827.515 79.1267 827.515 81.46V167.84C827.515 170.08 826.908 171.853 825.695 173.16C824.482 174.373 822.755 174.98 820.515 174.98C818.275 174.98 816.548 174.373 815.335 173.16C814.122 171.853 813.515 170.08 813.515 167.84V155.52L815.055 158.6C813.562 163.64 810.622 167.7 806.235 170.78C801.942 173.767 796.762 175.26 790.695 175.26ZM794.335 164.34C798.162 164.34 801.522 163.407 804.415 161.54C807.308 159.673 809.548 156.92 811.135 153.28C812.815 149.64 813.655 145.16 813.655 139.84C813.655 131.813 811.882 125.747 808.335 121.64C804.788 117.533 800.122 115.48 794.335 115.48C790.415 115.48 787.008 116.413 784.115 118.28C781.222 120.053 778.935 122.76 777.255 126.4C775.668 130.04 774.875 134.52 774.875 139.84C774.875 147.773 776.648 153.84 780.195 158.04C783.742 162.24 788.455 164.34 794.335 164.34Z" fill="#20A0FF"/>
<rect width="256" height="256" rx="30" fill="#20A0FF"/>
<path d="M103.701 172.17C100.407 172.17 97.894 171.26 96.1606 169.44C94.4273 167.62 93.5606 165.063 93.5606 161.77V95.99H70.5506C67.864 95.99 65.784 95.2533 64.3106 93.78C62.8373 92.3067 62.1006 90.27 62.1006 87.67C62.1006 84.9833 62.8373 82.9467 64.3106 81.56C65.784 80.0867 67.864 79.35 70.5506 79.35H136.721C139.407 79.35 141.487 80.0867 142.961 81.56C144.434 82.9467 145.171 84.9833 145.171 87.67C145.171 90.27 144.434 92.3067 142.961 93.78C141.487 95.2533 139.407 95.99 136.721 95.99H113.711V161.77C113.711 165.063 112.844 167.62 111.111 169.44C109.464 171.26 106.994 172.17 103.701 172.17ZM158.266 172.43C153.586 172.43 149.383 171.52 145.656 169.7C141.929 167.88 139.026 165.41 136.946 162.29C134.866 159.17 133.826 155.66 133.826 151.76C133.826 147.08 135.039 143.397 137.466 140.71C139.893 137.937 143.836 135.987 149.296 134.86C154.756 133.647 161.993 133.04 171.006 133.04H177.896V143.18H171.136C166.716 143.18 163.119 143.44 160.346 143.96C157.659 144.393 155.709 145.173 154.496 146.3C153.369 147.427 152.806 148.987 152.806 150.98C152.806 153.407 153.629 155.4 155.276 156.96C157.009 158.52 159.479 159.3 162.686 159.3C165.199 159.3 167.409 158.737 169.316 157.61C171.309 156.397 172.869 154.793 173.996 152.8C175.123 150.72 175.686 148.38 175.686 145.78V130.83C175.686 127.017 174.819 124.33 173.086 122.77C171.353 121.123 168.406 120.3 164.246 120.3C161.906 120.3 159.349 120.603 156.576 121.21C153.889 121.73 150.899 122.64 147.606 123.94C145.699 124.807 144.009 125.023 142.536 124.59C141.063 124.07 139.936 123.203 139.156 121.99C138.376 120.69 137.986 119.303 137.986 117.83C137.986 116.27 138.419 114.797 139.286 113.41C140.153 111.937 141.583 110.853 143.576 110.16C147.649 108.513 151.463 107.387 155.016 106.78C158.656 106.173 161.993 105.87 165.026 105.87C171.699 105.87 177.159 106.867 181.406 108.86C185.739 110.767 188.989 113.757 191.156 117.83C193.323 121.817 194.406 126.973 194.406 133.3V162.16C194.406 165.367 193.626 167.837 192.066 169.57C190.506 171.303 188.253 172.17 185.306 172.17C182.359 172.17 180.063 171.303 178.416 169.57C176.856 167.837 176.076 165.367 176.076 162.16V157.35L176.986 158.13C176.466 161.077 175.339 163.633 173.606 165.8C171.959 167.88 169.836 169.527 167.236 170.74C164.636 171.867 161.646 172.43 158.266 172.43Z" fill="white"/>
</svg>
