<svg width="256" height="256" viewBox="0 0 256 256" fill="none" xmlns="http://www.w3.org/2000/svg">
<rect width="256" height="256" rx="30" fill="#20A0FF"/>
<path d="M103.701 172.17C100.407 172.17 97.894 171.26 96.1606 169.44C94.4273 167.62 93.5606 165.063 93.5606 161.77V95.99H70.5506C67.864 95.99 65.784 95.2533 64.3106 93.78C62.8373 92.3067 62.1006 90.27 62.1006 87.67C62.1006 84.9833 62.8373 82.9467 64.3106 81.56C65.784 80.0867 67.864 79.35 70.5506 79.35H136.721C139.407 79.35 141.487 80.0867 142.961 81.56C144.434 82.9467 145.171 84.9833 145.171 87.67C145.171 90.27 144.434 92.3067 142.961 93.78C141.487 95.2533 139.407 95.99 136.721 95.99H113.711V161.77C113.711 165.063 112.844 167.62 111.111 169.44C109.464 171.26 106.994 172.17 103.701 172.17ZM158.266 172.43C153.586 172.43 149.383 171.52 145.656 169.7C141.929 167.88 139.026 165.41 136.946 162.29C134.866 159.17 133.826 155.66 133.826 151.76C133.826 147.08 135.039 143.397 137.466 140.71C139.893 137.937 143.836 135.987 149.296 134.86C154.756 133.647 161.993 133.04 171.006 133.04H177.896V143.18H171.136C166.716 143.18 163.119 143.44 160.346 143.96C157.659 144.393 155.709 145.173 154.496 146.3C153.369 147.427 152.806 148.987 152.806 150.98C152.806 153.407 153.629 155.4 155.276 156.96C157.009 158.52 159.479 159.3 162.686 159.3C165.199 159.3 167.409 158.737 169.316 157.61C171.309 156.397 172.869 154.793 173.996 152.8C175.123 150.72 175.686 148.38 175.686 145.78V130.83C175.686 127.017 174.819 124.33 173.086 122.77C171.353 121.123 168.406 120.3 164.246 120.3C161.906 120.3 159.349 120.603 156.576 121.21C153.889 121.73 150.899 122.64 147.606 123.94C145.699 124.807 144.009 125.023 142.536 124.59C141.063 124.07 139.936 123.203 139.156 121.99C138.376 120.69 137.986 119.303 137.986 117.83C137.986 116.27 138.419 114.797 139.286 113.41C140.153 111.937 141.583 110.853 143.576 110.16C147.649 108.513 151.463 107.387 155.016 106.78C158.656 106.173 161.993 105.87 165.026 105.87C171.699 105.87 177.159 106.867 181.406 108.86C185.739 110.767 188.989 113.757 191.156 117.83C193.323 121.817 194.406 126.973 194.406 133.3V162.16C194.406 165.367 193.626 167.837 192.066 169.57C190.506 171.303 188.253 172.17 185.306 172.17C182.359 172.17 180.063 171.303 178.416 169.57C176.856 167.837 176.076 165.367 176.076 162.16V157.35L176.986 158.13C176.466 161.077 175.339 163.633 173.606 165.8C171.959 167.88 169.836 169.527 167.236 170.74C164.636 171.867 161.646 172.43 158.266 172.43Z" fill="white"/>
</svg>
