<svg width="256" height="256" viewBox="0 0 256 256" fill="none" xmlns="http://www.w3.org/2000/svg">
<rect width="256" height="256" rx="20" fill="#20A0FF"/>
<path d="M96.9509 185.53C91.9643 185.53 88.1109 184.17 85.3909 181.45C82.6709 178.617 81.3109 174.707 81.3109 169.72V89.65H54.6209C50.4276 89.65 47.1976 88.5733 44.9309 86.42C42.7776 84.1533 41.7009 80.98 41.7009 76.9C41.7009 72.7067 42.7776 69.5333 44.9309 67.38C47.1976 65.2267 50.4276 64.15 54.6209 64.15H139.281C143.474 64.15 146.648 65.2267 148.801 67.38C151.068 69.5333 152.201 72.7067 152.201 76.9C152.201 80.98 151.068 84.1533 148.801 86.42C146.648 88.5733 143.474 89.65 139.281 89.65H112.591V169.72C112.591 174.707 111.288 178.617 108.681 181.45C106.074 184.17 102.164 185.53 96.9509 185.53ZM159.078 185.87C152.618 185.87 146.895 184.68 141.908 182.3C137.035 179.92 133.181 176.69 130.348 172.61C127.628 168.417 126.268 163.657 126.268 158.33C126.268 152.21 127.855 147.393 131.028 143.88C134.201 140.367 139.301 137.873 146.328 136.4C153.355 134.813 162.705 134.02 174.378 134.02H183.728V148.3H174.378C169.958 148.3 166.275 148.64 163.328 149.32C160.495 149.887 158.398 150.85 157.038 152.21C155.678 153.457 154.998 155.1 154.998 157.14C154.998 159.747 155.905 161.9 157.718 163.6C159.645 165.3 162.365 166.15 165.878 166.15C168.711 166.15 171.205 165.527 173.358 164.28C175.625 163.033 177.438 161.333 178.798 159.18C180.158 156.913 180.838 154.307 180.838 151.36V131.64C180.838 127.56 179.761 124.67 177.608 122.97C175.568 121.27 171.998 120.42 166.898 120.42C164.178 120.42 161.118 120.76 157.718 121.44C154.318 122.007 150.521 123.083 146.328 124.67C143.268 125.803 140.661 125.973 138.508 125.18C136.355 124.387 134.655 123.027 133.408 121.1C132.275 119.173 131.708 117.077 131.708 114.81C131.821 112.543 132.558 110.39 133.918 108.35C135.391 106.31 137.601 104.723 140.548 103.59C145.988 101.55 150.975 100.19 155.508 99.51C160.155 98.83 164.405 98.49 168.258 98.49C177.551 98.49 185.201 99.85 191.208 102.57C197.328 105.177 201.861 109.257 204.808 114.81C207.868 120.25 209.398 127.277 209.398 135.89V170.23C209.398 175.217 208.208 179.013 205.828 181.62C203.448 184.227 199.991 185.53 195.458 185.53C190.811 185.53 187.241 184.227 184.748 181.62C182.368 179.013 181.178 175.217 181.178 170.23V165.81L182.198 168.19C181.631 171.817 180.328 174.933 178.288 177.54C176.248 180.147 173.585 182.187 170.298 183.66C167.011 185.133 163.271 185.87 159.078 185.87Z" fill="white"/>
</svg>
